<svg width="14" height="14" viewBox="0 0 14 14" fill="none" xmlns="http://www.w3.org/2000/svg">
<path d="M9.29202 6.6831L4.41565 2.03685C4.33428 1.95928 4.22618 1.91602 4.11377 1.91602C4.00136 1.91602 3.89326 1.95928 3.8119 2.03685L3.80665 2.0421C3.76707 2.0797 3.73555 2.12496 3.71401 2.17513C3.69247 2.22529 3.68137 2.27932 3.68137 2.33391C3.68137 2.38851 3.69247 2.44253 3.71401 2.4927C3.73555 2.54286 3.76707 2.58812 3.80665 2.62572L8.39865 7.00072L3.80665 11.374C3.76707 11.4116 3.73555 11.4568 3.71401 11.507C3.69247 11.5572 3.68137 11.6112 3.68137 11.6658C3.68137 11.7204 3.69247 11.7744 3.71401 11.8246C3.73555 11.8747 3.76707 11.92 3.80665 11.9576L3.8119 11.9628C3.89326 12.0404 4.00136 12.0837 4.11377 12.0837C4.22618 12.0837 4.33428 12.0404 4.41565 11.9628L9.29202 7.3166C9.33491 7.27574 9.36905 7.2266 9.39238 7.17215C9.41571 7.1177 9.42773 7.05908 9.42773 6.99985C9.42773 6.94061 9.41571 6.882 9.39238 6.82755C9.36905 6.7731 9.33491 6.72396 9.29202 6.6831Z" fill="#111111"/>
</svg>
