<svg width="24" height="24" viewBox="0 0 24 24" fill="none" xmlns="http://www.w3.org/2000/svg">
<g clip-path="url(#clip0_19120_1454)">
<path d="M12.0001 21.7356C6.63214 21.7356 2.26514 17.3686 2.26514 12.0006C2.26514 6.63263 6.63214 2.26562 12.0001 2.26562C17.3681 2.26562 21.7351 6.63263 21.7351 12.0006C21.7351 17.3686 17.3681 21.7356 12.0001 21.7356ZM12.0001 3.76462C7.45914 3.76462 3.76414 7.45962 3.76414 12.0006C3.76414 16.5416 7.45914 20.2366 12.0001 20.2366C16.5411 20.2366 20.2361 16.5416 20.2361 12.0006C20.2361 7.45962 16.5411 3.76462 12.0001 3.76462Z" fill="black"/>
<path d="M12.9198 6.00061H11.0798V7.84061H12.9198V6.00061Z" fill="black"/>
<path d="M12.7331 9.50061H11.2664V18.0006H12.7331V9.50061Z" fill="black"/>
</g>
<defs>
<clipPath id="clip0_19120_1454">
<rect width="24" height="24" fill="white"/>
</clipPath>
</defs>
</svg>
