<svg width="20" height="20" viewBox="0 0 20 20" fill="none" xmlns="http://www.w3.org/2000/svg">
<g clip-path="url(#clip0_18840_1304)">
<path d="M8.33337 7.50033H7.50004V15.0003H8.33337V7.50033Z" fill="black"/>
<path d="M10.4167 7.50033H9.58337V15.0003H10.4167V7.50033Z" fill="black"/>
<path d="M12.5 7.50033H11.6667V15.0003H12.5V7.50033Z" fill="black"/>
<path d="M16.6667 4.16699H12.5V2.08366C12.5 1.85449 12.3125 1.66699 12.0834 1.66699H7.91671C7.68754 1.66699 7.50004 1.85449 7.50004 2.08366V4.16699H3.33337V5.00033H4.19171L5.00004 17.1128C5.01254 17.3337 5.19587 17.5003 5.41671 17.5003H14.5834C14.8042 17.5003 14.9834 17.3295 15 17.1128L15.8084 5.00033H16.6667V4.16699ZM8.33337 2.50033H11.6667V4.16699H8.33337V2.50033ZM14.1917 16.667H5.80837L5.02921 5.00033H14.9709L14.1917 16.667Z" fill="black"/>
</g>
<defs>
<clipPath id="clip0_18840_1304">
<rect width="20" height="20" fill="white"/>
</clipPath>
</defs>
</svg>
