<svg width="45" height="23" viewBox="0 0 45 23" fill="none" xmlns="http://www.w3.org/2000/svg">
<g clip-path="url(#clip0_18834_5307)">
<path d="M11.25 2.34375C6.3375 2.34375 2.34375 6.3375 2.34375 11.25C2.34375 16.1625 6.3375 20.1562 11.25 20.1562C16.1625 20.1562 20.1562 16.1625 20.1562 11.25C20.1562 6.3375 16.1625 2.34375 11.25 2.34375ZM11.25 19.1719C6.88125 19.1719 3.32812 15.6187 3.32812 11.25C3.32812 6.88125 6.88125 3.32812 11.25 3.32812C15.6187 3.32812 19.1719 6.88125 19.1719 11.25C19.1719 15.6187 15.6187 19.1719 11.25 19.1719Z" fill="black"/>
<path d="M11.7656 10.7344V5.625H10.7344V10.7344H5.625V11.7656H10.7344V16.875H11.7656V11.7656H16.875V10.7344H11.7656Z" fill="black"/>
</g>
<g clip-path="url(#clip1_18834_5307)">
<path d="M33.75 2.34375C28.8375 2.34375 24.8438 6.3375 24.8438 11.25C24.8438 16.1625 28.8375 20.1562 33.75 20.1562C38.6625 20.1562 42.6562 16.1625 42.6562 11.25C42.6562 6.3375 38.6625 2.34375 33.75 2.34375ZM33.75 19.1719C29.3813 19.1719 25.8281 15.6187 25.8281 11.25C25.8281 6.88125 29.3813 3.32812 33.75 3.32812C38.1187 3.32812 41.6719 6.88125 41.6719 11.25C41.6719 15.6187 38.1187 19.1719 33.75 19.1719Z" fill="black"/>
<path d="M28.125 10.7344V11.7656H39.375V10.7344H28.125Z" fill="black"/>
</g>
<defs>
<clipPath id="clip0_18834_5307">
<rect width="22.5" height="22.5" fill="white"/>
</clipPath>
<clipPath id="clip1_18834_5307">
<rect width="22.5" height="22.5" fill="white" transform="translate(22.5)"/>
</clipPath>
</defs>
</svg>
