<svg width="20" height="20" viewBox="0 0 20 20" fill="none" xmlns="http://www.w3.org/2000/svg">
<g clip-path="url(#clip0_18834_5272)">
<path d="M9.99988 18C5.58321 18 1.99988 14.4167 1.99988 10C1.99988 5.58333 5.58321 2 9.99988 2C14.4165 2 17.9999 5.58333 17.9999 10C17.9999 14.4167 14.4165 18 9.99988 18ZM9.99988 3.25C6.33321 3.25 3.24988 6.25 3.24988 10C3.24988 13.75 6.24988 16.75 9.99988 16.75C13.7499 16.75 16.7499 13.75 16.7499 10C16.7499 6.25 13.7499 3.25 9.99988 3.25Z" fill="black"/>
<path d="M10.6665 13.6667H9.41654V14.9167H10.6665V13.6667Z" fill="black"/>
<path d="M9.49972 12L9.33305 4.99998H10.6664L10.4997 12H9.41638H9.49972Z" fill="black"/>
</g>
<defs>
<clipPath id="clip0_18834_5272">
<rect width="20" height="20" fill="white"/>
</clipPath>
</defs>
</svg>
