<svg width="20" height="20" viewBox="0 0 20 20" fill="none" xmlns="http://www.w3.org/2000/svg">
<g clip-path="url(#clip0_18832_1343)">
<path d="M12.896 15.8417H11.571L12.0877 10.3833C12.3377 9.94167 12.4502 9.49167 12.4502 8.94583V5.64583C12.4502 4.3875 11.7502 3.94167 11.0918 3.94167H5.41683C5.31266 3.94167 5.21266 3.98333 5.13766 4.05833C5.06266 4.13333 5.021 4.23333 5.021 4.3375L5.02516 5.525C5.02516 5.73333 5.1835 5.90417 5.39183 5.91667L5.6585 5.9375L7.46266 15.8375H7.10433C6.88766 15.8375 6.7085 16.0167 6.7085 16.2333V17.5042H7.50016V16.6292H12.5002V17.5042H13.2918V16.2333C13.2918 16.0167 13.1168 15.8417 12.896 15.8417ZM11.0918 4.73333C11.4668 4.73333 11.6585 5.04167 11.6585 5.64583V8.94583C11.6585 9.3875 11.571 9.70833 11.3627 10.0583C11.3335 10.1083 11.3127 10.1667 11.3085 10.225L10.7752 15.8417H10.1418L9.87516 10.05L9.871 7.175C9.86683 6.95417 9.86266 6.73333 9.86266 6.51667C9.86266 6.3 9.8585 6.08333 9.85433 5.85417C9.85016 5.65417 9.696 5.4875 9.496 5.47083L5.81266 5.1625V4.7375L11.0918 4.73333ZM6.47516 6.00417L8.22516 6.1375L9.06683 6.22083C9.06683 6.32083 9.06683 6.42083 9.071 6.52083C9.071 6.74583 9.07516 6.96667 9.07933 7.18333L9.0835 10.0667L9.35016 15.8417H8.26683L6.47516 6.00417Z" fill="black"/>
<path d="M10.8335 3.72917C11.6752 3.72917 12.1168 2.98333 12.1168 2.24167C12.1168 1.55417 11.7168 0.8125 10.8335 0.8125C9.95016 0.8125 9.55016 1.55417 9.55016 2.24167C9.55016 2.97917 9.99183 3.72917 10.8335 3.72917ZM10.8335 1.60417C11.3002 1.60417 11.3252 2.13333 11.3252 2.24167C11.3252 2.27083 11.321 2.9375 10.8335 2.9375C10.346 2.9375 10.3418 2.27083 10.3418 2.24167C10.3418 2.13333 10.3668 1.60417 10.8335 1.60417Z" fill="black"/>
<g opacity="0.4">
<path d="M7.60417 6.08746L6.475 5.99996L6.64167 6.91663C7.04167 6.74996 7.375 6.45413 7.60417 6.08746Z" fill="black"/>
<path d="M8.26676 15.8416H9.3501L9.28343 14.3541C8.8376 14.375 8.41676 14.4166 8.02093 14.4708L8.26676 15.8416Z" fill="black"/>
<path d="M5.65833 5.94163L5.39167 5.92079C5.1875 5.90413 5.025 5.73329 5.025 5.52913L5.02083 4.34163C5.02083 4.23746 5.0625 4.13746 5.1375 4.06246C5.2125 3.98746 5.3125 3.94579 5.41667 3.94579H7.61667C7.25417 3.32913 6.59583 2.91663 5.83333 2.91663C4.68333 2.91663 3.75 3.84996 3.75 4.99996C3.75 6.14996 4.68333 7.08329 5.83333 7.08329C5.84583 7.08329 5.85417 7.07913 5.86667 7.07913L5.65833 5.94163Z" fill="black"/>
<path d="M11.7042 14.4291L11.5708 15.8375H12.8958C13.1125 15.8375 13.2917 16.0166 13.2917 16.2333V17.5041H12.5V16.6291H7.5V17.5041H6.70833V16.2333C6.70833 16.0166 6.8875 15.8375 7.10417 15.8375H7.4625L7.2375 14.6083C5.6125 14.9666 4.57917 15.6416 4.57917 16.4333C4.57917 17.6125 6.6625 18.75 10.0042 18.75C13.35 18.75 15.4167 17.6166 15.4167 16.4333C15.4167 15.4791 13.9292 14.6958 11.7042 14.4291Z" fill="black"/>
</g>
</g>
<defs>
<clipPath id="clip0_18832_1343">
<rect width="20" height="20" fill="white"/>
</clipPath>
</defs>
</svg>
