<svg width="20" height="20" viewBox="0 0 20 20" fill="none" xmlns="http://www.w3.org/2000/svg">
<g clip-path="url(#clip0_18834_5285)">
<path d="M10.0001 18.1127C5.52674 18.1127 1.88757 14.4735 1.88757 10.0002C1.88757 5.52686 5.52674 1.8877 10.0001 1.8877C14.4734 1.8877 18.1126 5.52686 18.1126 10.0002C18.1126 14.4735 14.4734 18.1127 10.0001 18.1127ZM10.0001 3.13686C6.21591 3.13686 3.13674 6.21603 3.13674 10.0002C3.13674 13.7844 6.21591 16.8635 10.0001 16.8635C13.7842 16.8635 16.8634 13.7844 16.8634 10.0002C16.8634 6.21603 13.7842 3.13686 10.0001 3.13686Z" fill="black"/>
<path d="M10.6251 12.2077H9.37507V11.9594C9.37507 11.3652 9.56424 10.8019 9.92257 10.3285L11.1951 8.49269L11.1959 8.49353C11.3626 8.25186 11.4517 7.96769 11.4517 7.67103C11.4517 6.87019 10.8009 6.2202 10.0009 6.2202C9.20091 6.2202 8.54924 6.87103 8.54924 7.67103H7.29924C7.29924 6.18186 8.51007 4.9702 10.0001 4.9702C11.4901 4.9702 12.7009 6.18103 12.7009 7.67103C12.7009 8.23269 12.5309 8.7702 12.2076 9.22603L12.2067 9.2252L10.9342 11.0627C10.7267 11.3377 10.6251 11.6402 10.6251 11.9602V12.2077Z" fill="black"/>
<path d="M10.6242 13.7485H9.37507V14.9977H10.6242V13.7485Z" fill="black"/>
</g>
<defs>
<clipPath id="clip0_18834_5285">
<rect width="20" height="20" fill="white"/>
</clipPath>
</defs>
</svg>
