<svg width="20" height="20" viewBox="0 0 20 20" fill="none" xmlns="http://www.w3.org/2000/svg">
<path d="M16.8665 6.00412L15.079 5.02912L14.4623 5.64162L15.8123 6.37912L9.99984 9.73745L4.18317 6.37912L9.99984 3.20412L12.1748 4.39162L12.7915 3.77912L10.1998 2.36245C10.0748 2.29578 9.92484 2.29578 9.79984 2.36245L3.13317 6.00412C2.99984 6.07495 2.9165 6.21662 2.9165 6.37078V14.0708C2.9165 14.2208 2.99567 14.3583 3.12484 14.4333L9.7915 18.2833C9.854 18.3166 9.929 18.3333 9.99984 18.3333C10.0707 18.3333 10.1457 18.3166 10.2082 18.2791L16.8748 14.4291C17.004 14.3541 17.0832 14.2166 17.0832 14.0666V6.37078C17.0832 6.21662 16.9998 6.07495 16.8665 6.00412ZM3.74984 7.09162L9.58317 10.4583V17.1958L3.74984 13.8291V7.09162ZM10.4165 17.1958V10.4583L16.2498 7.09162V13.8291L10.4165 17.1958Z" fill="black"/>
<path d="M7.77067 5.27078L7.15817 5.83328L9.69567 8.59578C9.77067 8.67912 9.879 8.72912 9.9915 8.72912C9.99567 8.72912 9.99567 8.72912 9.99984 8.72912C10.1082 8.72912 10.2165 8.68745 10.2957 8.60828L16.5082 2.42078L15.9207 1.83328L10.0123 7.71245L7.77067 5.27078Z" fill="black"/>
</svg>
