<svg width="20" height="20" viewBox="0 0 20 20" fill="none" xmlns="http://www.w3.org/2000/svg">
<g clip-path="url(#clip0_18641_1334)">
<path d="M12.5125 1.66669H7.4875C6 1.66669 5 2.66669 5 4.15002V15.85C5 17.3334 6 18.3334 7.4875 18.3334H12.5125C14 18.3334 15 17.3334 15 15.85V4.15002C15 2.66669 14 1.66669 12.5125 1.66669ZM7.4875 2.46252H12.5125C13.5583 2.46252 14.2042 3.10835 14.2042 4.15419V4.17502H5.79583V4.15002C5.79583 3.10835 6.44167 2.46252 7.4875 2.46252ZM14.2042 4.96669V15.0334H5.79583V4.96669H14.2042ZM12.5125 17.5375H7.4875C6.44167 17.5375 5.79583 16.8917 5.79583 15.8459V15.825H14.2042V15.8459C14.2042 16.8917 13.5583 17.5375 12.5125 17.5375Z" fill="black"/>
<path d="M11.2581 2.98334H8.74561V3.65H11.2581V2.98334Z" fill="black"/>
</g>
<defs>
<clipPath id="clip0_18641_1334">
<rect width="20" height="20" fill="white"/>
</clipPath>
</defs>
</svg>
