<svg width="30" height="30" viewBox="0 0 30 30" fill="none" xmlns="http://www.w3.org/2000/svg">
<g clip-path="url(#clip0_18794_1361)">
<path d="M21.8591 11.7625C21.8091 11.4687 21.5466 11.25 21.2466 11.25H17.4966V7.5H21.5904C21.8154 7.5 22.0216 7.38125 22.1341 7.18125L23.7404 4.375L22.6529 3.75L21.2216 6.25H8.77161L7.34036 3.75L6.25286 4.375L7.86536 7.1875C7.97786 7.38125 8.18411 7.50625 8.40911 7.50625H12.4966V11.2563H8.74661C8.44661 11.2563 8.18411 11.475 8.13411 11.7688L5.63411 25.5188C5.60286 25.7 5.65285 25.8875 5.7716 26.0312C5.89035 26.175 6.05911 26.25 6.24661 26.25H23.7466C23.9341 26.25 24.1091 26.1687 24.2279 26.025C24.3466 25.8813 24.3966 25.6938 24.3654 25.5125L21.8591 11.7625ZM13.7466 7.50625H16.2466V11.2563H13.7466V7.50625ZM6.99661 25L9.27161 12.5H20.7279L23.0029 25H6.99661Z" fill="black"/>
<path d="M14.9966 14.375C12.5841 14.375 10.6216 16.3375 10.6216 18.75C10.6216 21.1625 12.5841 23.125 14.9966 23.125C17.4091 23.125 19.3716 21.1625 19.3716 18.75C19.3716 16.3375 17.4091 14.375 14.9966 14.375ZM14.9966 21.875C13.2716 21.875 11.8716 20.475 11.8716 18.75C11.8716 17.025 13.2716 15.625 14.9966 15.625C16.7216 15.625 18.1216 17.025 18.1216 18.75C18.1216 20.475 16.7216 21.875 14.9966 21.875Z" fill="black"/>
</g>
<defs>
<clipPath id="clip0_18794_1361">
<rect width="30" height="30" fill="white"/>
</clipPath>
</defs>
</svg>
