<svg width="28" height="28" viewBox="0 0 28 28" fill="none" xmlns="http://www.w3.org/2000/svg">
<path d="M25.1207 24.5001H2.88402C2.53986 24.5001 2.24819 24.3426 2.09069 24.0743C1.93902 23.8059 1.94486 23.4734 2.11986 23.1759L13.2382 3.9201C13.4074 3.6226 13.6932 3.4476 14.0024 3.4476C14.3115 3.4476 14.5974 3.6226 14.7665 3.9201L25.8849 23.1759C26.054 23.4734 26.0657 23.8059 25.914 24.0743C25.7624 24.3426 25.4649 24.5001 25.1207 24.5001ZM3.47902 23.2751H24.5257L14.0024 5.04593L3.47902 23.2751Z" fill="black"/>
<path d="M13.3957 18.6668L13.2265 10.5001H14.7782L14.609 18.6668H13.3957Z" fill="black"/>
<path d="M14.8774 20.1251H13.1274V21.8751H14.8774V20.1251Z" fill="black"/>
</svg>
