<svg width="24" height="24" viewBox="0 0 24 24" fill="none" xmlns="http://www.w3.org/2000/svg">
<path d="M22.25 7.98H20.04V5.75C20.04 5.55 19.96 5.36 19.82 5.22C19.68 5.08 19.49 5 19.29 5H1.77C1.36 5 1.02 5.33 1.02 5.75L1 18.25C1 18.45 1.08 18.64 1.22 18.78C1.36 18.92 1.55 19 1.75 19H19.27C19.68 19 20.02 18.67 20.02 18.25V16.02H22.24C22.65 16.02 22.99 15.68 22.99 15.27V8.73C23 8.31 22.66 7.98 22.25 7.98ZM2.5 17.5L2.52 6.5H18.54L18.52 17.5H2.5ZM21.5 14.52H20.03L20.04 9.47H21.5V14.52Z" fill="black"/>
</svg>
