<svg width="20" height="21" viewBox="0 0 20 21" fill="none" xmlns="http://www.w3.org/2000/svg">
<path d="M17.8432 5.28189H9.97929C9.86881 5.28189 9.76285 5.32579 9.68473 5.40393C9.60661 5.48207 9.56272 5.58805 9.56272 5.69856V11.3902C9.56272 11.5007 9.60661 11.6067 9.68473 11.6849C9.76285 11.763 9.86881 11.8069 9.97929 11.8069H17.8466C17.957 11.8069 18.063 11.763 18.1411 11.6849C18.2192 11.6067 18.2631 11.5007 18.2631 11.3902V5.69856C18.2631 5.64356 18.2522 5.58911 18.2311 5.53834C18.21 5.48756 18.179 5.44148 18.1399 5.40275C18.1009 5.36401 18.0546 5.33339 18.0037 5.31265C17.9527 5.29191 17.8982 5.28145 17.8432 5.28189ZM17.4267 10.9777H10.3884V6.10773H17.43L17.4267 10.9777Z" fill="black"/>
<path d="M16.6268 2.67337H11.1931C10.4917 2.62615 9.79487 2.81733 9.21568 3.2159C8.63649 3.61447 8.20889 4.19707 8.00224 4.8692H6.12019C5.53903 4.87125 4.98058 5.09518 4.55893 5.49525C4.13729 5.89531 3.88427 6.44131 3.85157 7.0217H0.416566C0.306086 7.0217 0.20013 7.0656 0.122009 7.14374C0.0438878 7.22188 0 7.32786 0 7.43837V17.4775C0 17.588 0.0438878 17.694 0.122009 17.7722C0.20013 17.8503 0.306086 17.8942 0.416566 17.8942H6.54592C6.6564 17.8942 6.76236 17.8503 6.84048 17.7722C6.9186 17.694 6.96249 17.588 6.96249 17.4775V7.4342C6.96249 7.32369 6.9186 7.21771 6.84048 7.13957C6.76236 7.06143 6.6564 7.01753 6.54592 7.01753H4.67721C4.70938 6.65645 4.87515 6.32039 5.14205 6.07516C5.40896 5.82992 5.75777 5.69317 6.12019 5.6917H7.83728C7.82839 5.80281 7.82395 5.91587 7.82395 6.03087V14.965C7.80965 15.411 7.88706 15.8551 8.05139 16.2698C8.21571 16.6846 8.46345 17.0612 8.77924 17.3763C9.09504 17.6914 9.47216 17.9383 9.88724 18.1016C10.3023 18.2649 10.7465 18.3413 11.1923 18.3259H16.6077C17.0573 18.3531 17.5076 18.2851 17.9291 18.1262C18.3506 17.9673 18.7338 17.7212 19.0535 17.4039C19.3733 17.0866 19.6225 16.7054 19.7848 16.2851C19.9471 15.8648 20.0188 15.415 19.9952 14.965V6.0342C20.0199 5.58566 19.9496 5.13696 19.7889 4.71747C19.6282 4.29797 19.3808 3.91714 19.0629 3.59989C18.7449 3.28263 18.3635 3.03611 17.9438 2.87645C17.524 2.71678 17.0752 2.64758 16.6268 2.67337ZM0.825635 7.84753H2.42942C2.12823 8.22436 1.9614 8.69096 1.95536 9.17337V15.8867C1.95766 16.3152 2.10443 16.7304 2.37193 17.065H0.825635V7.84753ZM6.12936 17.065H3.41584C3.22424 16.933 3.06675 16.7573 2.95637 16.5524C2.846 16.3476 2.78588 16.1194 2.781 15.8867V9.17337C2.78451 8.88318 2.87622 8.60093 3.04393 8.36411C3.21164 8.12729 3.44742 7.94712 3.71994 7.84753H6.12769L6.12936 17.065ZM19.1695 14.965C19.1948 15.307 19.1455 15.6504 19.0252 15.9714C18.9048 16.2925 18.7162 16.5836 18.4724 16.8246C18.2285 17.0656 17.9353 17.2508 17.6129 17.3675C17.2906 17.4841 16.9467 17.5293 16.6052 17.5H11.1898C10.8524 17.5157 10.5155 17.461 10.2004 17.3393C9.88538 17.2175 9.59914 17.0315 9.35993 16.793C9.12072 16.5545 8.93379 16.2688 8.81106 15.9541C8.68833 15.6394 8.63249 15.3025 8.64708 14.965V6.0342C8.62559 5.695 8.6767 5.35512 8.79699 5.03725C8.91729 4.71938 9.10401 4.43084 9.34468 4.19091C9.58534 3.95097 9.87442 3.76516 10.1926 3.64587C10.5108 3.52659 10.8508 3.47659 11.1898 3.4992H16.6193C16.9584 3.47659 17.2983 3.52659 17.6165 3.64587C17.9347 3.76516 18.2238 3.95097 18.4645 4.19091C18.7051 4.43084 18.8918 4.71938 19.0121 5.03725C19.1324 5.35512 19.1835 5.695 19.1621 6.0342V14.965H19.1695Z" fill="black"/>
</svg>
