<svg width="20" height="20" viewBox="0 0 20 20" fill="none" xmlns="http://www.w3.org/2000/svg">
<path d="M9.99715 13.5648C9.29643 13.5648 8.61144 13.3558 8.02881 12.9641C7.44618 12.5724 6.99208 12.0156 6.72392 11.3642C6.45577 10.7128 6.3856 9.99607 6.52231 9.30457C6.65901 8.61306 6.99644 7.97787 7.49193 7.47932C7.98742 6.98077 8.6187 6.64126 9.30596 6.50371C9.99322 6.36616 10.7056 6.43676 11.353 6.70657C12.0004 6.97638 12.5537 7.43329 12.943 8.01952C13.3323 8.60575 13.5401 9.29497 13.5401 10C13.5391 10.9452 13.1655 11.8513 12.5013 12.5196C11.8371 13.188 10.9365 13.5639 9.99715 13.5648ZM9.99715 7.45373C9.49664 7.45373 9.00736 7.60307 8.5912 7.88286C8.17503 8.16265 7.85067 8.56033 7.65913 9.0256C7.46759 9.49088 7.41748 10.0029 7.51512 10.4968C7.61277 10.9907 7.85379 11.4444 8.20771 11.8005C8.56163 12.1566 9.01255 12.3991 9.50345 12.4974C9.99434 12.5956 10.5032 12.5452 10.9656 12.3525C11.428 12.1598 11.8232 11.8334 12.1013 11.4147C12.3794 10.9959 12.5278 10.5036 12.5278 10C12.5276 9.32478 12.2609 8.67726 11.7863 8.19979C11.3118 7.72232 10.6683 7.45398 9.99715 7.45373Z" fill="black"/>
<path d="M12.4072 19.1666H7.5934C7.45931 19.1662 7.33086 19.1123 7.23605 19.0169C7.14123 18.9216 7.08775 18.7923 7.08727 18.6574V16.5037C6.65437 16.3083 6.24216 16.0694 5.85691 15.7907L4.00447 16.8648C3.94684 16.8986 3.88317 16.9205 3.81708 16.9295C3.751 16.9385 3.68381 16.9342 3.61936 16.917C3.55491 16.8998 3.49447 16.87 3.44149 16.8293C3.38851 16.7885 3.34403 16.7377 3.31061 16.6796L0.902344 12.4805C0.868797 12.4226 0.846944 12.3585 0.838039 12.292C0.829133 12.2255 0.833349 12.1579 0.850444 12.093C0.86754 12.0282 0.89718 11.9674 0.937667 11.9141C0.978154 11.8608 1.02869 11.816 1.08639 11.7824L2.94435 10.7028C2.91644 10.4662 2.90292 10.2281 2.90386 9.98979C2.90545 9.75161 2.91897 9.51365 2.94435 9.27683L1.08915 8.20739C0.97355 8.13861 0.889459 8.02685 0.855026 7.89624C0.820593 7.76563 0.83858 7.62663 0.905105 7.50924L3.31153 3.31387C3.34468 3.25526 3.38909 3.20387 3.44218 3.1627C3.49526 3.12152 3.55596 3.09139 3.62073 3.07405C3.75063 3.03966 3.88875 3.05795 4.00539 3.12498L5.85691 4.19998C6.24216 3.9213 6.65437 3.68244 7.08727 3.48702V1.34257C7.08775 1.20766 7.14123 1.07841 7.23605 0.983011C7.33086 0.887612 7.45931 0.833801 7.5934 0.833313H12.4072C12.5413 0.833801 12.6697 0.887612 12.7645 0.983011C12.8593 1.07841 12.9128 1.20766 12.9133 1.34257V3.4972C13.3462 3.69263 13.7584 3.93149 14.1437 4.21016L15.9961 3.13516C16.0537 3.10141 16.1174 3.07942 16.1835 3.07046C16.2496 3.0615 16.3168 3.06574 16.3812 3.08295C16.4457 3.10015 16.5061 3.12997 16.5591 3.17071C16.6121 3.21144 16.6565 3.2623 16.69 3.32035L19.0991 7.51665C19.166 7.63391 19.1842 7.773 19.1498 7.90368C19.1136 8.03465 19.0281 8.14625 18.9114 8.2148L17.0535 9.29442C17.1074 9.76818 17.1074 10.2466 17.0535 10.7204L18.9114 11.8C18.9691 11.8336 19.0197 11.8784 19.0601 11.9317C19.1006 11.985 19.1303 12.0458 19.1474 12.1106C19.1645 12.1755 19.1687 12.2431 19.1598 12.3096C19.1509 12.3761 19.129 12.4401 19.0955 12.4981L16.6863 16.6944C16.6179 16.8107 16.5069 16.8954 16.377 16.93C16.2472 16.9646 16.1091 16.9465 15.9924 16.8796L14.1427 15.8111C13.7575 16.0898 13.3453 16.3286 12.9124 16.5241V18.6537C12.9119 18.7886 12.8584 18.9178 12.7636 19.0132C12.6688 19.1086 12.5403 19.1625 12.4062 19.1629M8.09401 18.1444H11.8955V16.1629C11.8954 16.0608 11.9257 15.961 11.9827 15.8765C12.0396 15.7919 12.1205 15.7266 12.2148 15.6889C12.7794 15.4668 13.307 15.1592 13.7792 14.7768C13.8582 14.7124 13.9549 14.674 14.0563 14.6667C14.1577 14.6594 14.2589 14.6836 14.3461 14.7361L16.0522 15.7296L17.9553 12.4194L16.2446 11.4259C16.1566 11.3751 16.0858 11.2988 16.0415 11.207C15.9972 11.1152 15.9814 11.0121 15.9961 10.9111C16.0973 10.3111 16.0973 9.69816 15.9961 9.09813C15.9802 8.99705 15.9955 8.89348 16.0399 8.80141C16.0843 8.70935 16.1558 8.63322 16.2446 8.58331L17.9544 7.59257L16.0513 4.28609L14.3452 5.27776C14.2572 5.32787 14.1565 5.35073 14.0556 5.34349C13.9548 5.33624 13.8583 5.2992 13.7783 5.23702C13.3053 4.8557 12.7779 4.54824 12.2139 4.32498C12.1196 4.28729 12.0387 4.22193 11.9818 4.13739C11.9248 4.05285 11.8944 3.95303 11.8946 3.85091V1.85183H8.09401V3.83331C8.09416 3.93544 8.0638 4.03525 8.00685 4.11979C7.94991 4.20433 7.86902 4.26969 7.77469 4.30739C7.21011 4.5295 6.68257 4.83705 6.21028 5.21942C6.13133 5.28384 6.03461 5.32229 5.93322 5.32958C5.83183 5.33687 5.73066 5.31264 5.64341 5.26017L3.93913 4.26572L2.03608 7.57591L3.7468 8.56942C3.8348 8.62021 3.90556 8.69649 3.94988 8.78831C3.99419 8.88013 4.01001 8.98325 3.99527 9.08424C3.89404 9.68427 3.89404 10.2972 3.99527 10.8972C4.01119 10.9983 3.99591 11.1019 3.95148 11.1939C3.90704 11.286 3.8356 11.3621 3.7468 11.412L2.03608 12.4074L3.93913 15.7176L5.64433 14.7222C5.73198 14.671 5.83291 14.6475 5.934 14.6548C6.03509 14.662 6.13168 14.6997 6.2112 14.7629C6.68596 15.1417 7.21295 15.4489 7.77561 15.675C7.86994 15.7127 7.95083 15.778 8.00777 15.8626C8.06472 15.9471 8.09508 16.0469 8.09493 16.1491L8.09401 18.1444Z" fill="black"/>
</svg>
