<svg width="20" height="20" viewBox="0 0 20 20" fill="none" xmlns="http://www.w3.org/2000/svg">
<g clip-path="url(#clip0_18641_1280)">
<path d="M18.9381 17.1167L15.9625 11.4111C15.8612 11.2278 15.67 11.1111 15.4619 11.1111H11.9856C11.8113 11.1111 11.6481 11.1889 11.5413 11.3222C11.4344 11.4556 11.395 11.6333 11.4344 11.7944L11.5413 12.2222H10.5625V7.77778H11.6875C11.9969 7.77778 12.25 7.52778 12.25 7.22222V3.33333H15.625C15.9344 3.33333 16.1875 3.08333 16.1875 2.77778V0.555556C16.1875 0.25 15.9344 0 15.625 0H4.375C4.06562 0 3.8125 0.25 3.8125 0.555556V2.77778C3.8125 3.08333 4.06562 3.33333 4.375 3.33333H7.75V7.22222C7.75 7.52778 8.00313 7.77778 8.3125 7.77778H9.4375V12.2222H8.45875L8.56563 11.8C8.605 11.6333 8.56563 11.4611 8.45875 11.3278C8.35188 11.1889 8.18875 11.1111 8.01437 11.1111H4.53813C4.33 11.1111 4.13312 11.2278 4.0375 11.4111L1.06187 17.1167C1.0225 17.1944 1 17.2833 1 17.3722V19.4444C1 19.75 1.25312 20 1.5625 20H18.4375C18.7469 20 19 19.75 19 19.4444V17.3722C19 17.2833 18.9775 17.1944 18.9381 17.1167ZM11.8169 13.3333L12.0925 14.4556H10.5625V13.3333H11.8169ZM8.3125 2.22222H4.9375V1.11111H15.0625V2.22222H11.6875C11.3781 2.22222 11.125 2.47222 11.125 2.77778V6.66667H10H8.875V2.77778C8.875 2.47222 8.62187 2.22222 8.3125 2.22222ZM8.18313 13.3333H9.4375V14.4556H7.90188L8.18313 13.3333ZM17.875 18.8889H2.125V17.5056L4.88125 12.2222H7.29438L6.63625 14.8778C6.59688 15.0444 6.63625 15.2167 6.74312 15.35C6.85 15.4833 7.01312 15.5611 7.1875 15.5611H10H12.8125C12.9869 15.5611 13.15 15.4833 13.2569 15.35C13.3638 15.2167 13.4031 15.0389 13.3637 14.8778L12.7 12.2222H15.1131L17.8694 17.5056V18.8889H17.875Z" fill="black"/>
</g>
<defs>
<clipPath id="clip0_18641_1280">
<rect width="20" height="20" fill="white"/>
</clipPath>
</defs>
</svg>
