<svg width="20" height="20" viewBox="0 0 20 20" fill="none" xmlns="http://www.w3.org/2000/svg">
<g clip-path="url(#clip0_18840_1299)">
<path d="M6.8966 18.3327C6.82577 18.3327 6.75493 18.316 6.68827 18.2785L4.41743 16.9702C4.3216 16.916 4.25077 16.8244 4.2216 16.716C4.19243 16.6077 4.2091 16.4952 4.26327 16.3994L8.78827 8.58269C7.76327 7.20353 7.64243 5.32852 8.51327 3.82852C9.42993 2.24102 11.2633 1.39936 13.0716 1.73686C13.2049 1.76186 13.3174 1.84936 13.3758 1.97019C13.4341 2.09102 13.4258 2.23686 13.3591 2.35352L11.3841 5.76602L12.9299 6.65769L14.9049 3.24519C14.9716 3.12852 15.0924 3.04936 15.2299 3.03686C15.3674 3.02436 15.4966 3.07852 15.5841 3.18269C16.7799 4.57852 16.9633 6.58269 16.0466 8.17019C15.1799 9.67019 13.4924 10.5035 11.7841 10.3077L7.2591 18.1244C7.17993 18.2577 7.04243 18.3327 6.8966 18.3327ZM5.1966 16.4577L6.74243 17.3494L11.2008 9.64936C11.2883 9.49519 11.4633 9.41602 11.6383 9.44936C13.1008 9.72019 14.5799 9.04103 15.3216 7.75769C15.9591 6.65352 15.9383 5.29936 15.3049 4.22852L13.4424 7.44519C13.3883 7.54103 13.2966 7.61186 13.1883 7.64102C13.0799 7.67019 12.9674 7.65352 12.8716 7.59936L10.6008 6.29102C10.4008 6.17436 10.3341 5.92019 10.4466 5.72019L12.3091 2.49936C12.3008 2.49936 12.2883 2.49936 12.2799 2.49936C11.0424 2.49936 9.86743 3.15352 9.2341 4.24936C8.49243 5.53269 8.64243 7.14936 9.6091 8.27852C9.72577 8.41186 9.74243 8.60352 9.65493 8.75769L5.1966 16.4577Z" fill="black"/>
</g>
<defs>
<clipPath id="clip0_18840_1299">
<rect width="20" height="20" fill="white"/>
</clipPath>
</defs>
</svg>
