<svg width="24" height="24" viewBox="0 0 24 24" fill="none" xmlns="http://www.w3.org/2000/svg">
<path d="M19.2276 20.6878L15.0276 14.0878C16.8276 12.6878 17.8276 10.2878 17.2276 7.68783C16.7276 5.48783 14.9276 3.68783 12.7276 3.18783C8.22762 2.08783 4.22762 5.98783 5.12762 10.4878C5.62762 12.7878 7.42762 14.5878 9.72762 15.1878C11.2276 15.5878 12.5276 15.3878 13.7276 14.7878L17.9276 21.3878L19.2276 20.5878V20.6878ZM6.52762 9.18783C6.52762 6.58783 8.62762 4.48783 11.2276 4.48783C13.8276 4.48783 15.9276 6.58783 15.9276 9.18783C15.9276 11.7878 13.8276 13.8878 11.2276 13.8878C8.62762 13.8878 6.52762 11.7878 6.52762 9.18783Z" fill="black"/>
</svg>
